HIERARCHY
ROOT SpineBase
{
  OFFSET 0.000000 0.000000 0.000000
  CHANNELS 6 Xposition Yposition Zposition Zrotation Xrotation Yrotation
  JOINT SpineMid
  {
    OFFSET 0.000000 28.331731 0.000000
    CHANNELS 3 Zrotation Xrotation Yrotation
    JOINT SpineShoulder
    {
      OFFSET -0.077132 21.008240 -0.977017
      CHANNELS 3 Zrotation Xrotation Yrotation
      JOINT Neck
      {
        OFFSET -0.056214 6.955863 -0.641935
        CHANNELS 3 Zrotation Xrotation Yrotation
        JOINT Head
        {
          OFFSET -3.284080 12.995736 0.452440
          CHANNELS 3 Zrotation Xrotation Yrotation
          End Site
          {
            OFFSET 0 0 0
          }
        }
      }
      JOINT ShoulderLeft
      {
        OFFSET -13.946588 -4.318014 8.270175
        CHANNELS 3 Zrotation Xrotation Yrotation
        JOINT ElbowLeft
        {
          OFFSET 0.339605 -26.398717 3.400264
          CHANNELS 3 Zrotation Xrotation Yrotation
          JOINT WristLeft
          {
            OFFSET -0.404426 -25.911247 -3.234497
            CHANNELS 3 Zrotation Xrotation Yrotation
            JOINT HandLeft
            {
              OFFSET 0.079199 -2.807845 -0.484570
              CHANNELS 3 Zrotation Xrotation Yrotation
              JOINT HandTipLeft
              {
                OFFSET 0.322436 -4.089689 -0.369606
                CHANNELS 3 Zrotation Xrotation Yrotation
                End Site
                {
                  OFFSET 0 0 0
                }
              }
              JOINT ThumbLeft
              {
                OFFSET 1.481044 2.157376 -4.722641
                CHANNELS 3 Zrotation Xrotation Yrotation
                End Site
                {
                  OFFSET 0 0 0
                }
              }
            }
          }
        }
      }
      JOINT ShoulderRight
      {
        OFFSET 9.690156 -3.636528 -11.444877
        CHANNELS 3 Zrotation Xrotation Yrotation
        JOINT ElbowRight
        {
          OFFSET 6.206615 -22.147139 -3.365260
          CHANNELS 3 Zrotation Xrotation Yrotation
          JOINT WristRight
          {
            OFFSET -1.631468 -19.555001 -3.764917
            CHANNELS 3 Zrotation Xrotation Yrotation
            JOINT HandRight
            {
              OFFSET -0.728402 -7.427265 -0.672217
              CHANNELS 3 Zrotation Xrotation Yrotation
              JOINT HandTipRight
              {
                OFFSET -0.417934 -6.357637 -0.201053
                CHANNELS 3 Zrotation Xrotation Yrotation
                End Site
                {
                  OFFSET 0 0 0
                }
              }
              JOINT ThumbRight
              {
                OFFSET -3.246758 0.625800 1.211980
                CHANNELS 3 Zrotation Xrotation Yrotation
                End Site
                {
                  OFFSET 0 0 0
                }
              }
            }
          }
        }
      }
    }
  }
  JOINT HipLeft
  {
    OFFSET -5.431779 -0.011721 0.480615
    CHANNELS 3 Zrotation Xrotation Yrotation
    JOINT KneeLeft
    {
      OFFSET 4.228343 -29.602895 3.531932
      CHANNELS 3 Zrotation Xrotation Yrotation
      JOINT AnkleLeft
      {
        OFFSET 6.022432 -32.613761 8.399361
        CHANNELS 3 Zrotation Xrotation Yrotation
        JOINT FootLeft
        {
          OFFSET -3.556746 -4.642676 -7.304864
          CHANNELS 3 Zrotation Xrotation Yrotation
          End Site
          {
            OFFSET 0 0 0
          }
        }
      }
    }
  }
  JOINT HipRight
  {
    OFFSET 4.858648 1.466982 -6.859081
    CHANNELS 3 Zrotation Xrotation Yrotation
    JOINT KneeRight
    {
      OFFSET 9.175865 -27.891885 2.222023
      CHANNELS 3 Zrotation Xrotation Yrotation
      JOINT AnkleRight
      {
        OFFSET 6.016101 -32.380271 10.503754
        CHANNELS 3 Zrotation Xrotation Yrotation
        JOINT FootRight
        {
          OFFSET -5.336967 -3.458595 -9.340349
          CHANNELS 3 Zrotation Xrotation Yrotation
          End Site
          {
            OFFSET 0 0 0
          }
        }
      }
    }
  }
}
MOTION
Frames: 8
Frame Time: 0.033333
36.724541 68.816109 347.508944 -0.000000 0.000000 35.498543 -0.000000 0.000000 -35.498543 -0.000000 0.000000 0.000000 -0.000000 0.000000 0.000000 0.000000 0.000000 0.000000 -0.000000 0.000000 0.000000 -0.000000 0.000000 0.000000 -0.000000 0.000000 0.000000 -0.000000 0.000000 0.000000 0.000000 0.000000 0.000000 0.000000 0.000000 0.000000 -0.000000 0.000000 0.000000 -0.000000 0.000000 0.000000 -0.000000 0.000000 0.000000 -0.000000 0.000000 0.000000 0.000000 0.000000 0.000000 0.000000 0.000000 0.000000 -0.000000 0.000000 -35.498543 -0.000000 0.000000 0.000000 -0.000000 0.000000 0.000000 0.000000 0.000000 0.000000 -0.000000 0.000000 -35.498543 -0.000000 0.000000 0.000000 -0.000000 0.000000 0.000000 0.000000 0.000000 0.000000
36.837075 68.818564 347.429736 0.013250 -0.047174 35.920164 0.016945 0.045976 -35.920165 -0.000000 0.000000 0.000000 -0.000000 0.000000 0.000000 0.000000 0.000000 0.000000 -0.000000 0.000000 0.000000 -0.000000 0.000000 0.000000 -0.618959 4.967102 0.271863 0.597660 -4.969703 -0.219080 0.000000 0.000000 0.000000 0.000000 0.000000 0.000000 0.169288 -0.757292 -0.236974 -0.172433 0.756582 0.239231 -0.000000 0.000000 0.000000 0.788296 -1.196160 0.061983 0.000000 0.000000 0.000000 0.000000 0.000000 0.000000 0.016945 0.045976 -35.920165 -0.000000 0.000000 0.000000 -2.167683 2.997196 1.109342 0.000000 0.000000 0.000000 0.016945 0.045976 -35.920165 -0.000000 0.000000 0.000000 -0.454221 0.681616 0.173718 0.000000 0.000000 0.000000
36.931418 68.817873 347.367353 0.034590 -0.120327 36.277279 0.043312 0.117470 -36.277287 -0.000000 0.000000 0.000000 0.099513 -0.950193 -0.242779 0.000000 0.000000 0.000000 -0.000000 0.000000 0.000000 -0.304024 -1.158037 0.053019 -0.876527 9.269164 0.476271 1.125488 -8.119081 -0.347917 0.000000 0.000000 0.000000 0.000000 0.000000 0.000000 0.262197 -1.251185 -0.388023 1.087363 1.128279 0.114942 -1.357525 0.124128 0.252188 1.483621 -2.410304 0.142979 0.000000 0.000000 0.000000 0.000000 0.000000 0.000000 0.043312 0.117470 -36.277287 -0.000000 0.000000 0.000000 -3.903854 5.319574 2.044851 0.000000 0.000000 0.000000 -0.568446 -1.102388 -36.706265 -1.019032 1.957772 0.312281 0.090223 0.352547 0.475875 0.000000 0.000000 0.000000
37.007570 68.814033 347.321796 0.064023 -0.219472 36.568365 0.079337 0.214411 -36.568391 -0.000000 0.000000 0.000000 0.303151 -1.353206 -0.348860 0.000000 0.000000 0.000000 0.068336 0.923970 0.020158 -0.572001 -2.514925 0.051326 -1.230154 11.670577 0.681406 1.640402 -10.094977 -0.430080 0.000000 0.000000 0.000000 0.000000 0.000000 0.000000 0.283273 -1.491488 -0.457947 1.419896 1.507519 0.089633 -2.083862 1.378454 0.231115 2.455993 -5.023046 0.399259 0.000000 0.000000 0.000000 0.000000 0.000000 0.000000 0.079337 0.214411 -36.568391 -0.000000 0.000000 0.000000 -5.263772 7.095708 2.799269 0.000000 0.000000 0.000000 -0.699255 -1.449313 -37.138546 -1.475826 2.645191 0.417934 0.385529 0.026962 0.695252 0.000000 0.000000 0.000000
37.065529 68.807046 347.293064 0.101563 -0.344653 36.792368 0.125086 0.336830 -36.792430 -0.000000 0.000000 0.000000 0.610585 -1.709871 -0.443901 0.000000 0.000000 0.000000 0.082001 1.018358 0.022960 -0.813507 -2.925535 0.071503 -1.574951 13.118354 0.872156 2.179405 -11.236023 -0.487712 0.000000 0.000000 0.000000 0.000000 0.000000 0.000000 0.234486 -1.483270 -0.448920 1.609657 1.770281 0.021598 -2.658498 1.894874 0.244668 3.397143 -7.031074 0.606073 0.000000 0.000000 0.000000 0.000000 0.000000 0.000000 0.125086 0.336830 -36.792430 -0.000000 0.000000 0.000000 -6.291808 8.423314 3.374454 0.000000 0.000000 0.000000 -0.730612 -1.678017 -37.458394 -1.891722 3.152736 0.489735 0.844401 -0.626526 0.907973 0.000000 0.000000 0.000000
37.105297 68.796912 347.281157 0.147236 -0.495950 36.948701 0.180451 0.484853 -36.948827 -0.000000 0.000000 0.000000 1.023381 -2.021078 -0.527496 0.000000 0.000000 0.000000 0.091153 1.006128 0.023911 -1.076077 -3.102251 0.094898 -1.943230 13.773118 1.052564 2.774072 -11.713768 -0.534874 0.000000 0.000000 0.000000 0.000000 0.000000 0.000000 0.115391 -1.226933 -0.360636 1.657718 1.916226 -0.085950 -3.163812 2.428546 0.227532 4.393669 -9.176977 0.851324 0.000000 0.000000 0.000000 0.000000 0.000000 0.000000 -0.230883 1.269218 -36.983827 0.800436 -0.379069 0.043944 -7.021859 9.373361 3.775495 0.000000 0.000000 0.000000 -0.662901 -1.796998 -37.667092 -2.264476 3.486818 0.526842 1.476469 -1.623306 1.122918 0.000000 0.000000 0.000000
37.137646 68.785835 347.264871 0.171408 -0.643557 37.009445 0.250517 0.617080 -37.009831 -0.000000 0.000000 0.000000 1.524246 -2.235489 -0.586739 0.000000 0.000000 0.000000 0.169874 1.020177 0.033530 -1.450018 -3.153997 0.109952 -2.023601 14.039811 1.140534 3.137773 -11.950304 -0.561143 0.000000 0.000000 0.000000 0.000000 0.000000 0.000000 0.177065 -0.795194 -0.248683 1.598883 1.568793 -0.192696 -4.388814 3.368347 0.279972 6.172529 -12.175098 1.199520 0.000000 0.000000 0.000000 0.000000 0.000000 0.000000 -0.280548 1.857603 -37.042273 1.171212 -0.670155 0.050760 -8.637664 11.588999 4.585498 0.000000 0.000000 0.000000 -0.561973 -2.016115 -37.794414 -2.714502 3.872178 0.579466 3.008485 -4.182706 1.534410 0.000000 0.000000 0.000000
37.133200 68.770075 347.286947 0.189173 -0.831989 37.032648 0.350081 0.778100 -37.033652 -0.000000 0.000000 0.000000 1.986398 -2.176991 -0.579458 0.000000 0.000000 0.000000 0.208862 0.880340 0.036658 -1.693933 -2.751028 0.127700 -2.104327 12.949750 1.144090 3.944398 -8.657347 -0.343416 0.000000 0.000000 0.000000 0.000000 0.000000 0.000000 -0.000000 0.000000 0.000000 1.373696 1.293422 -0.387455 -4.275302 3.795514 0.179674 6.914200 -14.825928 1.591140 0.000000 0.000000 0.000000 0.000000 0.000000 0.000000 -0.350909 2.738050 -37.056601 1.740684 -1.141357 0.061798 -7.276967 9.853861 3.819731 0.000000 0.000000 0.000000 -0.279140 -2.049847 -37.808371 -3.079553 3.979445 0.567280 4.155304 -6.086414 1.810646 0.000000 0.000000 0.000000
